<mxfile host="app.diagrams.net" agent="Mozilla/5.0 (Windows NT 10.0; Win64; x64) AppleWebKit/537.36 (KHTML, like Gecko) Chrome/126.0.0.0 Safari/537.36" version="24.7.5" pages="3">
  <diagram name="Sequencia " id="2YBvvXClWsGukQMizWep">
    <mxGraphModel dx="780" dy="493" grid="1" gridSize="10" guides="1" tooltips="1" connect="1" arrows="1" fold="1" page="1" pageScale="1" pageWidth="850" pageHeight="1100" math="0" shadow="0">
      <root>
        <mxCell id="0" />
        <mxCell id="1" parent="0" />
        <mxCell id="aM9ryv3xv72pqoxQDRHE-1" value="UsuÃ¡rio" style="shape=umlLifeline;perimeter=lifelinePerimeter;whiteSpace=wrap;html=1;container=0;dropTarget=0;collapsible=0;recursiveResize=0;outlineConnect=0;portConstraint=eastwest;newEdgeStyle={&quot;edgeStyle&quot;:&quot;elbowEdgeStyle&quot;,&quot;elbow&quot;:&quot;vertical&quot;,&quot;curved&quot;:0,&quot;rounded&quot;:0};" parent="1" vertex="1">
          <mxGeometry x="30" y="40" width="100" height="410" as="geometry" />
        </mxCell>
        <mxCell id="aM9ryv3xv72pqoxQDRHE-2" value="" style="html=1;points=[];perimeter=orthogonalPerimeter;outlineConnect=0;targetShapes=umlLifeline;portConstraint=eastwest;newEdgeStyle={&quot;edgeStyle&quot;:&quot;elbowEdgeStyle&quot;,&quot;elbow&quot;:&quot;vertical&quot;,&quot;curved&quot;:0,&quot;rounded&quot;:0};" parent="aM9ryv3xv72pqoxQDRHE-1" vertex="1">
          <mxGeometry x="45" y="70" width="10" height="300" as="geometry" />
        </mxCell>
        <mxCell id="aM9ryv3xv72pqoxQDRHE-7" value="Informa linha desejada" style="html=1;verticalAlign=bottom;endArrow=block;edgeStyle=elbowEdgeStyle;elbow=vertical;curved=0;rounded=0;" parent="1" source="aM9ryv3xv72pqoxQDRHE-2" target="aM9ryv3xv72pqoxQDRHE-6" edge="1">
          <mxGeometry relative="1" as="geometry">
            <mxPoint x="195" y="130" as="sourcePoint" />
            <Array as="points">
              <mxPoint x="180" y="120" />
            </Array>
            <mxPoint x="260" y="130" as="targetPoint" />
          </mxGeometry>
        </mxCell>
        <mxCell id="aM9ryv3xv72pqoxQDRHE-8" value="Montar o mapa" style="html=1;verticalAlign=bottom;endArrow=open;dashed=1;endSize=8;edgeStyle=elbowEdgeStyle;elbow=vertical;curved=0;rounded=0;" parent="1" target="aM9ryv3xv72pqoxQDRHE-2" edge="1" source="aM9ryv3xv72pqoxQDRHE-6">
          <mxGeometry relative="1" as="geometry">
            <mxPoint x="95" y="324" as="targetPoint" />
            <Array as="points">
              <mxPoint x="190" y="324" />
            </Array>
            <mxPoint x="265" y="324" as="sourcePoint" />
          </mxGeometry>
        </mxCell>
        <mxCell id="aM9ryv3xv72pqoxQDRHE-9" value="Exibe lista na tela" style="html=1;verticalAlign=bottom;endArrow=block;edgeStyle=elbowEdgeStyle;elbow=vertical;curved=0;rounded=0;" parent="1" source="aM9ryv3xv72pqoxQDRHE-6" target="aM9ryv3xv72pqoxQDRHE-2" edge="1">
          <mxGeometry relative="1" as="geometry">
            <mxPoint x="175" y="160" as="sourcePoint" />
            <Array as="points">
              <mxPoint x="190" y="160" />
            </Array>
            <mxPoint x="100" y="160" as="targetPoint" />
          </mxGeometry>
        </mxCell>
        <mxCell id="aM9ryv3xv72pqoxQDRHE-10" value="Seleciona uma linha" style="html=1;verticalAlign=bottom;endArrow=open;dashed=1;endSize=8;edgeStyle=elbowEdgeStyle;elbow=vertical;curved=0;rounded=0;" parent="1" source="aM9ryv3xv72pqoxQDRHE-2" target="aM9ryv3xv72pqoxQDRHE-6" edge="1">
          <mxGeometry relative="1" as="geometry">
            <mxPoint x="265" y="281" as="targetPoint" />
            <Array as="points">
              <mxPoint x="180" y="281" />
            </Array>
            <mxPoint x="100" y="281" as="sourcePoint" />
          </mxGeometry>
        </mxCell>
        <mxCell id="AAMg-OBeMynSYfQ4CA5q-1" value="Olho vivo" style="shape=umlLifeline;perimeter=lifelinePerimeter;whiteSpace=wrap;html=1;container=0;dropTarget=0;collapsible=0;recursiveResize=0;outlineConnect=0;portConstraint=eastwest;newEdgeStyle={&quot;edgeStyle&quot;:&quot;elbowEdgeStyle&quot;,&quot;elbow&quot;:&quot;vertical&quot;,&quot;curved&quot;:0,&quot;rounded&quot;:0};" parent="1" vertex="1">
          <mxGeometry x="646" y="40" width="100" height="410" as="geometry" />
        </mxCell>
        <mxCell id="AAMg-OBeMynSYfQ4CA5q-2" value="" style="html=1;points=[];perimeter=orthogonalPerimeter;outlineConnect=0;targetShapes=umlLifeline;portConstraint=eastwest;newEdgeStyle={&quot;edgeStyle&quot;:&quot;elbowEdgeStyle&quot;,&quot;elbow&quot;:&quot;vertical&quot;,&quot;curved&quot;:0,&quot;rounded&quot;:0};" parent="AAMg-OBeMynSYfQ4CA5q-1" vertex="1">
          <mxGeometry x="45" y="80" width="10" height="310" as="geometry" />
        </mxCell>
        <mxCell id="AAMg-OBeMynSYfQ4CA5q-3" value="&lt;span style=&quot;color: var(--base-color-brand); font-family: Inter, system-ui, -apple-system, BlinkMacSystemFont, &amp;quot;Segoe UI&amp;quot;, Roboto, Oxygen, Ubuntu, Cantarell, &amp;quot;Fira Sans&amp;quot;, &amp;quot;Droid Sans&amp;quot;, Helvetica, Arial, sans-serif; font-size: 12px; text-align: left; white-space: pre-wrap;&quot; data-testid=&quot;resolvedVariable&quot; spellcheck=&quot;false&quot; class=&quot;resolvedVariable&quot;&gt;{{baseUrl}}&lt;/span&gt;&lt;span style=&quot;color: rgb(33, 33, 33); font-family: Inter, system-ui, -apple-system, BlinkMacSystemFont, &amp;quot;Segoe UI&amp;quot;, Roboto, Oxygen, Ubuntu, Cantarell, &amp;quot;Fira Sans&amp;quot;, &amp;quot;Droid Sans&amp;quot;, Helvetica, Arial, sans-serif; font-size: 12px; text-align: left; white-space: pre-wrap;&quot; data-offset-key=&quot;cv154-1-0&quot;&gt;/Linha/Buscar?termosBusca=Lapa&lt;/span&gt;" style="html=1;verticalAlign=bottom;endArrow=block;edgeStyle=elbowEdgeStyle;elbow=vertical;curved=0;rounded=0;" parent="1" source="aM9ryv3xv72pqoxQDRHE-6" target="AAMg-OBeMynSYfQ4CA5q-1" edge="1">
          <mxGeometry relative="1" as="geometry">
            <mxPoint x="280" y="130" as="sourcePoint" />
            <Array as="points">
              <mxPoint x="365" y="130" />
            </Array>
            <mxPoint x="450" y="130" as="targetPoint" />
          </mxGeometry>
        </mxCell>
        <mxCell id="AAMg-OBeMynSYfQ4CA5q-4" value="Lista de linhas" style="html=1;verticalAlign=bottom;endArrow=block;edgeStyle=elbowEdgeStyle;elbow=vertical;curved=0;rounded=0;" parent="1" source="AAMg-OBeMynSYfQ4CA5q-1" target="aM9ryv3xv72pqoxQDRHE-5" edge="1">
          <mxGeometry relative="1" as="geometry">
            <mxPoint x="445" y="160" as="sourcePoint" />
            <Array as="points">
              <mxPoint x="370" y="160" />
            </Array>
            <mxPoint x="270" y="160" as="targetPoint" />
          </mxGeometry>
        </mxCell>
        <mxCell id="AAMg-OBeMynSYfQ4CA5q-6" value="&lt;span style=&quot;color: var(--base-color-brand); font-family: Inter, system-ui, -apple-system, BlinkMacSystemFont, &amp;quot;Segoe UI&amp;quot;, Roboto, Oxygen, Ubuntu, Cantarell, &amp;quot;Fira Sans&amp;quot;, &amp;quot;Droid Sans&amp;quot;, Helvetica, Arial, sans-serif; font-size: 12px; text-align: left; white-space: pre-wrap;&quot; data-testid=&quot;resolvedVariable&quot; spellcheck=&quot;false&quot; class=&quot;resolvedVariable&quot;&gt;{{baseUrl}}&lt;/span&gt;&lt;span style=&quot;color: rgb(33, 33, 33); font-family: Inter, system-ui, -apple-system, BlinkMacSystemFont, &amp;quot;Segoe UI&amp;quot;, Roboto, Oxygen, Ubuntu, Cantarell, &amp;quot;Fira Sans&amp;quot;, &amp;quot;Droid Sans&amp;quot;, Helvetica, Arial, sans-serif; font-size: 12px; text-align: left; white-space: pre-wrap;&quot; data-offset-key=&quot;2bfnl-1-0&quot;&gt;/Parada/BuscarParadasPorLinha?codigoLinha=1&lt;br&gt;&lt;/span&gt;&lt;div&gt;&lt;span style=&quot;color: var(--base-color-brand); font-family: Inter, system-ui, -apple-system, BlinkMacSystemFont, &amp;quot;Segoe UI&amp;quot;, Roboto, Oxygen, Ubuntu, Cantarell, &amp;quot;Fira Sans&amp;quot;, &amp;quot;Droid Sans&amp;quot;, Helvetica, Arial, sans-serif; font-size: 12px; text-align: left; white-space: pre-wrap;&quot; data-testid=&quot;resolvedVariable&quot; spellcheck=&quot;false&quot; class=&quot;resolvedVariable&quot;&gt;&lt;span data-offset-key=&quot;2bfnl-0-0&quot;&gt;&lt;span data-text=&quot;true&quot;&gt;&lt;span style=&quot;color: var(--base-color-brand);&quot; data-testid=&quot;resolvedVariable&quot; spellcheck=&quot;false&quot; class=&quot;resolvedVariable&quot;&gt;{{baseUrl}}&lt;/span&gt;&lt;span style=&quot;color: rgb(33, 33, 33);&quot; data-offset-key=&quot;5aner-1-0&quot;&gt;/Posicao/Linha?codigoLinha=2506&lt;/span&gt;&lt;/span&gt;&lt;/span&gt;&lt;/span&gt;&lt;/div&gt;&lt;div&gt;&lt;span style=&quot;color: var(--base-color-brand); font-family: Inter, system-ui, -apple-system, BlinkMacSystemFont, &amp;quot;Segoe UI&amp;quot;, Roboto, Oxygen, Ubuntu, Cantarell, &amp;quot;Fira Sans&amp;quot;, &amp;quot;Droid Sans&amp;quot;, Helvetica, Arial, sans-serif; font-size: 12px; text-align: left; white-space: pre-wrap;&quot; data-testid=&quot;resolvedVariable&quot; spellcheck=&quot;false&quot; class=&quot;resolvedVariable&quot;&gt;{{baseUrl}}&lt;/span&gt;&lt;span style=&quot;color: rgb(33, 33, 33); font-family: Inter, system-ui, -apple-system, BlinkMacSystemFont, &amp;quot;Segoe UI&amp;quot;, Roboto, Oxygen, Ubuntu, Cantarell, &amp;quot;Fira Sans&amp;quot;, &amp;quot;Droid Sans&amp;quot;, Helvetica, Arial, sans-serif; font-size: 12px; text-align: left; white-space: pre-wrap;&quot; data-offset-key=&quot;7c5de-1-0&quot;&gt;/Previsao/Linha?codigoLinha=34105&lt;/span&gt;&lt;br&gt;&lt;/div&gt;" style="html=1;verticalAlign=bottom;endArrow=open;dashed=1;endSize=8;edgeStyle=elbowEdgeStyle;elbow=vertical;curved=0;rounded=0;" parent="1" edge="1" target="AAMg-OBeMynSYfQ4CA5q-1" source="aM9ryv3xv72pqoxQDRHE-6">
          <mxGeometry x="-0.0013" relative="1" as="geometry">
            <mxPoint x="631.5" y="287" as="targetPoint" />
            <Array as="points">
              <mxPoint x="380" y="287" />
            </Array>
            <mxPoint x="269.5" y="287" as="sourcePoint" />
            <mxPoint as="offset" />
          </mxGeometry>
        </mxCell>
        <mxCell id="AAMg-OBeMynSYfQ4CA5q-7" value="Retorna as paradas, posiÃ§Ã£o do veiculo e a previsÃ£o de chegada ao destino" style="html=1;verticalAlign=bottom;endArrow=block;elbow=vertical;rounded=0;entryX=0.5;entryY=0.69;entryDx=0;entryDy=0;entryPerimeter=0;" parent="1" source="AAMg-OBeMynSYfQ4CA5q-2" target="aM9ryv3xv72pqoxQDRHE-6" edge="1">
          <mxGeometry x="0.0026" relative="1" as="geometry">
            <mxPoint x="631.5" y="325" as="sourcePoint" />
            <mxPoint x="280" y="325" as="targetPoint" />
            <mxPoint as="offset" />
          </mxGeometry>
        </mxCell>
        <mxCell id="AAMg-OBeMynSYfQ4CA5q-8" value="Seleciona a parada" style="html=1;verticalAlign=bottom;endArrow=open;dashed=1;endSize=8;edgeStyle=elbowEdgeStyle;elbow=vertical;curved=0;rounded=0;" parent="1" source="aM9ryv3xv72pqoxQDRHE-2" edge="1" target="aM9ryv3xv72pqoxQDRHE-6">
          <mxGeometry relative="1" as="geometry">
            <mxPoint x="265" y="372" as="targetPoint" />
            <Array as="points">
              <mxPoint x="190" y="372" />
            </Array>
            <mxPoint x="89.5" y="372" as="sourcePoint" />
          </mxGeometry>
        </mxCell>
        <mxCell id="AAMg-OBeMynSYfQ4CA5q-9" value="&lt;div&gt;&lt;span style=&quot;color: rgb(33, 33, 33); font-family: Inter, system-ui, -apple-system, BlinkMacSystemFont, &amp;quot;Segoe UI&amp;quot;, Roboto, Oxygen, Ubuntu, Cantarell, &amp;quot;Fira Sans&amp;quot;, &amp;quot;Droid Sans&amp;quot;, Helvetica, Arial, sans-serif; font-size: 12px; text-align: left; white-space: pre-wrap;&quot; data-offset-key=&quot;2bfnl-1-0&quot;&gt;&lt;span data-offset-key=&quot;2bfnl-1-0&quot;&gt;&lt;span data-text=&quot;true&quot;&gt;&lt;span style=&quot;color: var(--base-color-brand);&quot; data-testid=&quot;resolvedVariable&quot; spellcheck=&quot;false&quot; class=&quot;resolvedVariable&quot;&gt;&lt;span data-offset-key=&quot;78rri-0-0&quot;&gt;&lt;span data-text=&quot;true&quot;&gt;{{baseUrl}}&lt;/span&gt;&lt;/span&gt;&lt;/span&gt;&lt;span data-offset-key=&quot;78rri-1-0&quot;&gt;&lt;span data-text=&quot;true&quot;&gt;/Previsao/Parada?codigoParada&lt;/span&gt;&lt;/span&gt;&lt;/span&gt;&lt;/span&gt;&lt;/span&gt;&lt;/div&gt;" style="html=1;verticalAlign=bottom;endArrow=open;dashed=1;endSize=8;edgeStyle=elbowEdgeStyle;elbow=vertical;curved=0;rounded=0;" parent="1" target="AAMg-OBeMynSYfQ4CA5q-1" edge="1" source="aM9ryv3xv72pqoxQDRHE-5">
          <mxGeometry relative="1" as="geometry">
            <mxPoint x="632" y="372" as="targetPoint" />
            <Array as="points">
              <mxPoint x="380.5" y="372" />
            </Array>
            <mxPoint x="270" y="372" as="sourcePoint" />
          </mxGeometry>
        </mxCell>
        <mxCell id="AAMg-OBeMynSYfQ4CA5q-10" value="Exibe a previsÃ£o" style="html=1;verticalAlign=bottom;endArrow=open;dashed=1;endSize=8;edgeStyle=elbowEdgeStyle;elbow=vertical;curved=0;rounded=0;" parent="1" target="aM9ryv3xv72pqoxQDRHE-2" edge="1" source="aM9ryv3xv72pqoxQDRHE-6">
          <mxGeometry relative="1" as="geometry">
            <mxPoint x="94" y="403" as="targetPoint" />
            <Array as="points">
              <mxPoint x="189" y="403" />
            </Array>
            <mxPoint x="264" y="403" as="sourcePoint" />
          </mxGeometry>
        </mxCell>
        <mxCell id="AAMg-OBeMynSYfQ4CA5q-11" value="Retorna a previsÃ£o de chegada na parada" style="html=1;verticalAlign=bottom;endArrow=block;elbow=vertical;rounded=0;" parent="1" edge="1" target="aM9ryv3xv72pqoxQDRHE-6">
          <mxGeometry relative="1" as="geometry">
            <mxPoint x="691" y="400" as="sourcePoint" />
            <mxPoint x="275" y="400" as="targetPoint" />
          </mxGeometry>
        </mxCell>
        <mxCell id="R92TJwNoRmsXEhQ6_tfh-1" value="" style="html=1;verticalAlign=bottom;endArrow=open;dashed=1;endSize=8;edgeStyle=elbowEdgeStyle;elbow=vertical;curved=0;rounded=0;" edge="1" parent="1">
          <mxGeometry relative="1" as="geometry">
            <mxPoint x="300" y="372" as="targetPoint" />
            <Array as="points" />
            <mxPoint x="270" y="372" as="sourcePoint" />
          </mxGeometry>
        </mxCell>
        <mxCell id="aM9ryv3xv72pqoxQDRHE-5" value="Sistema de Busca" style="shape=umlLifeline;perimeter=lifelinePerimeter;whiteSpace=wrap;html=1;container=0;dropTarget=0;collapsible=0;recursiveResize=0;outlineConnect=0;portConstraint=eastwest;newEdgeStyle={&quot;edgeStyle&quot;:&quot;elbowEdgeStyle&quot;,&quot;elbow&quot;:&quot;vertical&quot;,&quot;curved&quot;:0,&quot;rounded&quot;:0};" parent="1" vertex="1">
          <mxGeometry x="250" y="40" width="100" height="410" as="geometry" />
        </mxCell>
        <mxCell id="aM9ryv3xv72pqoxQDRHE-6" value="" style="html=1;points=[];perimeter=orthogonalPerimeter;outlineConnect=0;targetShapes=umlLifeline;portConstraint=eastwest;newEdgeStyle={&quot;edgeStyle&quot;:&quot;elbowEdgeStyle&quot;,&quot;elbow&quot;:&quot;vertical&quot;,&quot;curved&quot;:0,&quot;rounded&quot;:0};" parent="aM9ryv3xv72pqoxQDRHE-5" vertex="1">
          <mxGeometry x="45" y="80" width="10" height="290" as="geometry" />
        </mxCell>
      </root>
    </mxGraphModel>
  </diagram>
  <diagram id="gxdWlUTNCLx-ze0IJ5p-" name="Caso_de_uso">
    <mxGraphModel dx="1050" dy="1224" grid="0" gridSize="10" guides="1" tooltips="1" connect="1" arrows="1" fold="1" page="0" pageScale="1" pageWidth="827" pageHeight="1169" math="0" shadow="0">
      <root>
        <mxCell id="0" />
        <mxCell id="1" parent="0" />
        <mxCell id="U6lHlBXvqvYZTJr1haF2-1" value="UsuÃ¡rio" style="shape=umlActor;verticalLabelPosition=bottom;verticalAlign=top;html=1;" vertex="1" parent="1">
          <mxGeometry x="-55" y="-441" width="30" height="60" as="geometry" />
        </mxCell>
        <mxCell id="U6lHlBXvqvYZTJr1haF2-2" value="Consultar Linhas&amp;nbsp;" style="ellipse;whiteSpace=wrap;html=1;" vertex="1" parent="1">
          <mxGeometry x="114" y="-498" width="120" height="44" as="geometry" />
        </mxCell>
        <mxCell id="U6lHlBXvqvYZTJr1haF2-3" value="" style="endArrow=open;endFill=1;endSize=12;html=1;rounded=0;fontSize=12;curved=1;exitX=0.6;exitY=0.633;exitDx=0;exitDy=0;exitPerimeter=0;" edge="1" parent="1" source="U6lHlBXvqvYZTJr1haF2-1" target="U6lHlBXvqvYZTJr1haF2-2">
          <mxGeometry width="160" relative="1" as="geometry">
            <mxPoint x="10" y="-309" as="sourcePoint" />
            <mxPoint x="170" y="-309" as="targetPoint" />
          </mxGeometry>
        </mxCell>
        <mxCell id="U6lHlBXvqvYZTJr1haF2-4" value="Ver Detalhe da Linha&amp;nbsp;" style="ellipse;whiteSpace=wrap;html=1;" vertex="1" parent="1">
          <mxGeometry x="114" y="-430" width="118" height="49" as="geometry" />
        </mxCell>
        <mxCell id="U6lHlBXvqvYZTJr1haF2-5" value="" style="endArrow=open;endFill=1;endSize=12;html=1;rounded=0;fontSize=12;curved=1;exitX=0.467;exitY=0.644;exitDx=0;exitDy=0;exitPerimeter=0;" edge="1" parent="1" source="U6lHlBXvqvYZTJr1haF2-1" target="U6lHlBXvqvYZTJr1haF2-4">
          <mxGeometry width="160" relative="1" as="geometry">
            <mxPoint x="-17" y="-321" as="sourcePoint" />
            <mxPoint x="280" y="-242" as="targetPoint" />
          </mxGeometry>
        </mxCell>
        <mxCell id="U6lHlBXvqvYZTJr1haF2-7" value="" style="edgeStyle=none;curved=1;rounded=0;orthogonalLoop=1;jettySize=auto;html=1;fontSize=12;startSize=8;endSize=8;exitX=0.578;exitY=0.689;exitDx=0;exitDy=0;exitPerimeter=0;" edge="1" parent="1" source="U6lHlBXvqvYZTJr1haF2-1" target="U6lHlBXvqvYZTJr1haF2-6">
          <mxGeometry relative="1" as="geometry" />
        </mxCell>
        <mxCell id="U6lHlBXvqvYZTJr1haF2-6" value="Ver Detalhe da Parada" style="ellipse;whiteSpace=wrap;html=1;" vertex="1" parent="1">
          <mxGeometry x="111.5" y="-357" width="123" height="56" as="geometry" />
        </mxCell>
      </root>
    </mxGraphModel>
  </diagram>
  <diagram id="5C5gN0mS9qmzbaOeyQ9Q" name="Prototipo_tela">
    <mxGraphModel dx="1180" dy="909" grid="0" gridSize="10" guides="1" tooltips="1" connect="1" arrows="1" fold="1" page="0" pageScale="1" pageWidth="827" pageHeight="1169" math="0" shadow="0">
      <root>
        <mxCell id="0" />
        <mxCell id="1" parent="0" />
        <mxCell id="B1KdJ_sMHxvxVL6BDEG--1" value="Home" style="swimlane;" vertex="1" parent="1">
          <mxGeometry x="-165" y="-19" width="641" height="378" as="geometry" />
        </mxCell>
        <mxCell id="B1KdJ_sMHxvxVL6BDEG--2" value="&lt;font style=&quot;font-size: 17px;&quot;&gt;&lt;b&gt;Consultar Linhas&lt;/b&gt;&lt;/font&gt;" style="text;strokeColor=none;fillColor=none;html=1;align=center;verticalAlign=middle;whiteSpace=wrap;rounded=0;fontSize=16;" vertex="1" parent="B1KdJ_sMHxvxVL6BDEG--1">
          <mxGeometry x="242" y="34" width="157" height="48" as="geometry" />
        </mxCell>
        <mxCell id="B1KdJ_sMHxvxVL6BDEG--3" value="&lt;span style=&quot;font-size: 15px;&quot;&gt;Qual linha deseja encontrar?&lt;/span&gt;" style="text;strokeColor=none;fillColor=none;html=1;align=center;verticalAlign=middle;whiteSpace=wrap;rounded=0;fontSize=16;" vertex="1" parent="B1KdJ_sMHxvxVL6BDEG--1">
          <mxGeometry x="14" y="97" width="202" height="35" as="geometry" />
        </mxCell>
        <mxCell id="B1KdJ_sMHxvxVL6BDEG--4" value="" style="verticalLabelPosition=bottom;verticalAlign=top;html=1;shape=mxgraph.basic.rect;fillColor2=none;strokeWidth=1;size=20;indent=5;" vertex="1" parent="B1KdJ_sMHxvxVL6BDEG--1">
          <mxGeometry x="218" y="97" width="232" height="37" as="geometry" />
        </mxCell>
        <mxCell id="B1KdJ_sMHxvxVL6BDEG--5" value="Buscar" style="labelPosition=center;verticalLabelPosition=middle;align=center;html=1;shape=mxgraph.basic.shaded_button;dx=10;fillColor=#E6E6E6;strokeColor=none;whiteSpace=wrap;" vertex="1" parent="B1KdJ_sMHxvxVL6BDEG--1">
          <mxGeometry x="452" y="92.25" width="84" height="46.5" as="geometry" />
        </mxCell>
        <mxCell id="B1KdJ_sMHxvxVL6BDEG--7" value="Aqui serÃ¡ exibida a lista de linhas apÃ³s a busca.&lt;div&gt;&lt;br&gt;&lt;/div&gt;&lt;div&gt;Ao interagir com a lista ele serÃ¡ redirecionado Ã  tela da linha.&lt;/div&gt;" style="whiteSpace=wrap;html=1;shape=mxgraph.basic.cloud_rect" vertex="1" parent="B1KdJ_sMHxvxVL6BDEG--1">
          <mxGeometry x="16" y="152" width="607" height="207" as="geometry" />
        </mxCell>
        <mxCell id="B1KdJ_sMHxvxVL6BDEG--9" value="Detalhe da LinhaÂ " style="swimlane;" vertex="1" parent="1">
          <mxGeometry x="-159" y="419" width="644" height="352" as="geometry" />
        </mxCell>
        <mxCell id="B1KdJ_sMHxvxVL6BDEG--11" value="Aqui serÃ¡ exibido a lista de paradas.&lt;br&gt;&lt;br&gt;Ao interagir com a lista ele serÃ¡ redirecionado Ã  tela da parada." style="whiteSpace=wrap;html=1;shape=mxgraph.basic.cloud_rect" vertex="1" parent="B1KdJ_sMHxvxVL6BDEG--9">
          <mxGeometry x="536" y="105" width="101" height="237" as="geometry" />
        </mxCell>
        <mxCell id="B1KdJ_sMHxvxVL6BDEG--12" value="Aqui serÃ¡ exibido a origem, destino e a previsÃ£o de chegada ao ponto final." style="whiteSpace=wrap;html=1;shape=mxgraph.basic.cloud_rect" vertex="1" parent="B1KdJ_sMHxvxVL6BDEG--9">
          <mxGeometry x="39" y="27" width="149" height="73" as="geometry" />
        </mxCell>
        <mxCell id="B1KdJ_sMHxvxVL6BDEG--15" value="Aqui serÃ¡ exibido o mapa com as paradas e a&amp;nbsp;&lt;div&gt;posiÃ§Ã£o do veÃ­culo no momento em que a tela foi carregada.&lt;/div&gt;" style="whiteSpace=wrap;html=1;shape=mxgraph.basic.cloud_rect" vertex="1" parent="B1KdJ_sMHxvxVL6BDEG--9">
          <mxGeometry x="35" y="106" width="468" height="233" as="geometry" />
        </mxCell>
        <mxCell id="B1KdJ_sMHxvxVL6BDEG--10" value="" style="endArrow=open;endFill=1;endSize=12;html=1;rounded=0;fontSize=12;curved=1;exitX=0.5;exitY=1;exitDx=0;exitDy=0;entryX=0.491;entryY=0.009;entryDx=0;entryDy=0;entryPerimeter=0;" edge="1" parent="1" source="B1KdJ_sMHxvxVL6BDEG--1" target="B1KdJ_sMHxvxVL6BDEG--9">
          <mxGeometry width="160" relative="1" as="geometry">
            <mxPoint x="120" y="542" as="sourcePoint" />
            <mxPoint x="280" y="542" as="targetPoint" />
          </mxGeometry>
        </mxCell>
        <mxCell id="B1KdJ_sMHxvxVL6BDEG--13" value="Detalhes da ParadaÂ " style="swimlane;" vertex="1" parent="1">
          <mxGeometry x="-164" y="833" width="654" height="353" as="geometry" />
        </mxCell>
        <mxCell id="B1KdJ_sMHxvxVL6BDEG--16" value="Aqui serÃ¡ exibido os detalhes da parada e o tempo estimado de chegada do Ã´nibus na parada." style="whiteSpace=wrap;html=1;shape=mxgraph.basic.cloud_rect" vertex="1" parent="B1KdJ_sMHxvxVL6BDEG--13">
          <mxGeometry x="174.13" y="45" width="305.75" height="283" as="geometry" />
        </mxCell>
        <mxCell id="B1KdJ_sMHxvxVL6BDEG--14" value="" style="endArrow=open;endFill=1;endSize=12;html=1;rounded=0;fontSize=12;curved=1;exitX=0.5;exitY=1;exitDx=0;exitDy=0;entryX=0.5;entryY=0;entryDx=0;entryDy=0;" edge="1" parent="1" source="B1KdJ_sMHxvxVL6BDEG--9" target="B1KdJ_sMHxvxVL6BDEG--13">
          <mxGeometry width="160" relative="1" as="geometry">
            <mxPoint x="120" y="942" as="sourcePoint" />
            <mxPoint x="280" y="942" as="targetPoint" />
          </mxGeometry>
        </mxCell>
      </root>
    </mxGraphModel>
  </diagram>
</mxfile>
